<svg xmlns="http://www.w3.org/2000/svg" viewBox="0 0 137.88 151.74"><defs><style>.cls-1{fill:#fad9b5;}</style></defs><g id="Layer_2" data-name="Layer 2"><g id="Layer_3" data-name="Layer 3"><path class="cls-1" d="M13.88,72.38,47.09,150.6a1.88,1.88,0,0,0,2.81.8L79,131a1.88,1.88,0,0,0,.2-2.91L16.88,70.27A1.88,1.88,0,0,0,13.88,72.38Z"/><path class="cls-1" d="M72,30l33.21,78.22a1.87,1.87,0,0,0,2.8.8l29.11-20.43a1.88,1.88,0,0,0,.19-2.91L75,27.89A1.88,1.88,0,0,0,72,30Z"/><path class="cls-1" d="M65.91,79.37,32.71,1.14A1.88,1.88,0,0,0,29.9.34L.8,20.78a1.87,1.87,0,0,0-.2,2.91L62.91,81.48A1.88,1.88,0,0,0,65.91,79.37Z"/></g></g></svg>